# xmcd CD database file
#
# Track frame offsets:
#	150
#	3874
#	23631
#	42031
#	61880
#	86236
#	106212
#	125861
#	145862
#	162287
#	184205
#
# Disc length: 3172 seconds
#
# Revision: 1
# Processed by: cddbd v1.5.1PL0 Copyright (c) Steve Scherf et al.
# Submitted via: CDex 1.51
#
DISCID=8b0c620b
DTITLE=Coki Marquez - Lejanos transeuntes
DYEAR=2003
DGENRE=Salsa
TTITLE0=No quedara cacia tu espenza
TTITLE1=Como una gota
TTITLE2=Encendida flor
TTITLE3=Dame la luz
TTITLE4=Iluminate
TTITLE5=Lejanos transeuntes
TTITLE6=La sagrada
TTITLE7=Yo vengo a ofrecer mi corazon
TTITLE8=Nada
TTITLE9=Por el camino vas
TTITLE10=Cerca de ti
EXTD=YEAR: 2003
EXTT0=
EXTT1=
EXTT2=
EXTT3=
EXTT4=
EXTT5=
EXTT6=
EXTT7=
EXTT8=
EXTT9=
EXTT10=
PLAYORDER=
